<?xml version="1.0" standalone="no"?>
<!DOCTYPE svg PUBLIC "-//W3C//DTD SVG 20010904//EN"
 "http://www.w3.org/TR/2001/REC-SVG-20010904/DTD/svg10.dtd">
<svg version="1.0" xmlns="http://www.w3.org/2000/svg"
 width="700.000000pt" height="700.000000pt" viewBox="0 0 700.000000 700.000000"
 preserveAspectRatio="xMidYMid meet">
<metadata>
Created by potrace 1.14, written by Peter Selinger 2001-2017
</metadata>
<g transform="translate(0.000000,700.000000) scale(0.100000,-0.100000)"
fill="#000000" stroke="none">
<path d="M440 4290 l0 -1840 218 2 217 3 5 1650 5 1650 1035 -1627 c569 -895
1039 -1639 1044 -1653 l10 -25 218 0 218 0 0 1840 0 1840 -217 -2 -218 -3 -5
-1617 -5 -1617 -1025 1614 c-912 1436 -1028 1614 -1054 1619 -16 3 -122 6
-237 6 l-209 0 0 -1840z"/>
<path d="M3933 4593 l-213 -3 0 -1836 0 -1835 833 4 c908 4 870 1 1057 63 372
124 679 431 804 806 61 183 61 177 61 963 0 795 1 777 -66 980 -122 366 -429
668 -807 795 -179 60 -219 63 -867 65 -324 1 -686 0 -802 -2z m1127 -223 c248
-22 437 -99 626 -258 123 -102 244 -281 300 -444 57 -164 57 -164 61 -838 5
-672 0 -779 -42 -922 -97 -337 -354 -606 -682 -713 -147 -49 -230 -55 -715
-55 l-448 0 0 1620 0 1620 393 0 c215 0 444 -5 507 -10z"/>
</g>
</svg>
