<svg width="68" height="55" viewBox="0 0 68 55" fill="none" xmlns="http://www.w3.org/2000/svg">
<path d="M14.1036 40.8964C21.5022 48.2951 33.4978 48.2951 40.8964 40.8964C48.2951 33.4978 48.2951 21.5022 40.8964 14.1036C33.4978 6.7049 21.5022 6.7049 14.1036 14.1036C6.7049 21.5022 6.7049 33.4978 14.1036 40.8964Z" stroke="#A5A64F"/>
<path d="M27.6464 27.3536C27.4512 27.1583 27.4512 26.8417 27.6464 26.6464L30.8284 23.4645C31.0237 23.2692 31.3403 23.2692 31.5355 23.4645C31.7308 23.6597 31.7308 23.9763 31.5355 24.1716L28.7071 27L31.5355 29.8284C31.7308 30.0237 31.7308 30.3403 31.5355 30.5355C31.3403 30.7308 31.0237 30.7308 30.8284 30.5355L27.6464 27.3536ZM68 27.5L28 27.5V26.5L68 26.5V27.5Z" fill="black"/>
</svg>
