<svg width="68" height="55" viewBox="0 0 68 55" fill="none" xmlns="http://www.w3.org/2000/svg">
<path d="M53.8964 14.1036C61.2951 21.5022 61.2951 33.4978 53.8964 40.8964C46.4978 48.2951 34.5022 48.2951 27.1036 40.8964C19.7049 33.4978 19.7049 21.5022 27.1036 14.1036C34.5022 6.7049 46.4978 6.7049 53.8964 14.1036Z" stroke="#A5A64F"/>
<path d="M40.3536 27.3536C40.5488 27.1583 40.5488 26.8417 40.3536 26.6464L37.1716 23.4645C36.9763 23.2692 36.6597 23.2692 36.4645 23.4645C36.2692 23.6597 36.2692 23.9763 36.4645 24.1716L39.2929 27L36.4645 29.8284C36.2692 30.0237 36.2692 30.3403 36.4645 30.5355C36.6597 30.7308 36.9763 30.7308 37.1716 30.5355L40.3536 27.3536ZM0 27.5H40V26.5H0V27.5Z" fill="black"/>
</svg>
