<svg width="32" height="26" viewBox="0 0 32 26" fill="none" xmlns="http://www.w3.org/2000/svg">
<line x1="18" y1="8" x2="18" y2="24.7941" stroke="black" stroke-width="2"/>
<path fill-rule="evenodd" clip-rule="evenodd" d="M28.6212 13.8252V18.9689C28.6212 21.6338 26.4609 23.7941 23.7959 23.7941C23.7959 23.7941 23.7959 23.7941 23.7959 23.7941V24.7941C23.7959 24.7941 23.7959 24.7941 23.7959 24.7941C27.0131 24.7941 29.6212 22.1861 29.6212 18.9689V13.8252C29.6212 10.608 27.0131 8 23.7959 8C23.7959 8 23.7959 8 23.7959 8V9C23.7959 9 23.7959 9 23.7959 9C26.4609 9 28.6212 11.1603 28.6212 13.8252ZM18.9415 10.6041V22.19C18.3281 21.2674 17.9707 20.1599 17.9707 18.9689V13.8252C17.9707 12.6343 18.3281 11.5267 18.9415 10.6041Z" fill="black"/>
<path fill-rule="evenodd" clip-rule="evenodd" d="M27.6505 13.8252V18.9689C27.6505 21.6338 25.4902 23.7941 22.8252 23.7941C22.8252 23.7941 22.8251 23.7941 22.825 23.7941V24.7941C22.8251 24.7941 22.8252 24.7941 22.8252 24.7941C26.0424 24.7941 28.6505 22.1861 28.6505 18.9689V13.8252C28.6505 10.608 26.0424 8 22.8252 8C22.8252 8 22.8251 8 22.825 8V9C22.8251 9 22.8252 9 22.8252 9C25.4901 9 27.6505 11.1603 27.6505 13.8252ZM18.9415 21.833C18.3498 21.0319 18 20.0412 18 18.9689V13.8252C18 12.7529 18.3498 11.7622 18.9415 10.9612V9.48347C17.7499 10.5501 17 12.1001 17 13.8252V18.9689C17 20.694 17.7499 22.244 18.9415 23.3107V21.833Z" fill="black"/>
<line x1="18.9414" y1="8.48804" x2="23.7958" y2="8.48804" stroke="black"/>
<line x1="18.9414" y1="24.2941" x2="23.7958" y2="24.2941" stroke="black"/>
<path fill-rule="evenodd" clip-rule="evenodd" d="M27.6505 13.8252V18.9689C27.6505 21.6338 25.4902 23.7941 22.8252 23.7941C22.8252 23.7941 22.8251 23.7941 22.825 23.7941V24.7941C22.8251 24.7941 22.8252 24.7941 22.8252 24.7941C26.0424 24.7941 28.6505 22.1861 28.6505 18.9689V13.8252C28.6505 10.608 26.0424 8 22.8252 8C22.8252 8 22.8251 8 22.825 8V9C22.8251 9 22.8252 9 22.8252 9C25.4901 9 27.6505 11.1603 27.6505 13.8252ZM18.9415 21.833C18.3498 21.0319 18 20.0412 18 18.9689V13.8252C18 12.7529 18.3498 11.7622 18.9415 10.9612V9.48347C17.7499 10.5501 17 12.1001 17 13.8252V18.9689C17 20.694 17.7499 22.244 18.9415 23.3107V21.833Z" fill="black"/>
<line x1="18.9414" y1="8.48804" x2="23.7958" y2="8.48804" stroke="black"/>
<line x1="18.9414" y1="24.2941" x2="23.7958" y2="24.2941" stroke="black"/>
<line x1="3" y1="1" x2="3" y2="17.7941" stroke="black" stroke-width="2"/>
<line x1="14.5923" y1="17.7941" x2="14.5923" y2="0.999998" stroke="black" stroke-width="2"/>
<path fill-rule="evenodd" clip-rule="evenodd" d="M2.97119 1L13.6497 17.7948L14.4849 17.2449L4.15606 1H2.97119Z" fill="black"/>
</svg>
