<svg width="80" height="38" viewBox="0 0 80 38" fill="none" xmlns="http://www.w3.org/2000/svg">
<line x1="42" y1="7" x2="42" y2="23.7941" stroke="black" stroke-width="2"/>
<path fill-rule="evenodd" clip-rule="evenodd" d="M52.6212 12.8252V17.9689C52.6212 20.6338 50.4609 22.7941 47.7959 22.7941C47.7959 22.7941 47.7959 22.7941 47.7959 22.7941V23.7941C47.7959 23.7941 47.7959 23.7941 47.7959 23.7941C51.0131 23.7941 53.6212 21.1861 53.6212 17.9689V12.8252C53.6212 9.60805 51.0131 7 47.7959 7C47.7959 7 47.7959 7 47.7959 7V8C47.7959 8 47.7959 8 47.7959 8C50.4609 8 52.6212 10.1603 52.6212 12.8252ZM42.9415 9.60413V21.19C42.3281 20.2674 41.9707 19.1599 41.9707 17.9689V12.8252C41.9707 11.6343 42.3281 10.5267 42.9415 9.60413Z" fill="black"/>
<path fill-rule="evenodd" clip-rule="evenodd" d="M51.6505 12.8252V17.9689C51.6505 20.6338 49.4902 22.7941 46.8252 22.7941C46.8252 22.7941 46.8251 22.7941 46.825 22.7941V23.7941C46.8251 23.7941 46.8252 23.7941 46.8252 23.7941C50.0424 23.7941 52.6505 21.1861 52.6505 17.9689V12.8252C52.6505 9.60805 50.0424 7 46.8252 7C46.8252 7 46.8251 7 46.825 7V8C46.8251 8 46.8252 8 46.8252 8C49.4901 8 51.6505 10.1603 51.6505 12.8252ZM42.9415 20.833C42.3498 20.0319 42 19.0412 42 17.9689V12.8252C42 11.7529 42.3498 10.7622 42.9415 9.96118V8.48347C41.7499 9.55011 41 11.1001 41 12.8252V17.9689C41 19.694 41.7499 21.244 42.9415 22.3107V20.833Z" fill="black"/>
<line x1="42.9414" y1="7.48804" x2="47.7958" y2="7.48804" stroke="black"/>
<line x1="42.9414" y1="23.2941" x2="47.7958" y2="23.2941" stroke="black"/>
<path fill-rule="evenodd" clip-rule="evenodd" d="M51.6505 12.8252V17.9689C51.6505 20.6338 49.4902 22.7941 46.8252 22.7941C46.8252 22.7941 46.8251 22.7941 46.825 22.7941V23.7941C46.8251 23.7941 46.8252 23.7941 46.8252 23.7941C50.0424 23.7941 52.6505 21.1861 52.6505 17.9689V12.8252C52.6505 9.60805 50.0424 7 46.8252 7C46.8252 7 46.8251 7 46.825 7V8C46.8251 8 46.8252 8 46.8252 8C49.4901 8 51.6505 10.1603 51.6505 12.8252ZM42.9415 20.833C42.3498 20.0319 42 19.0412 42 17.9689V12.8252C42 11.7529 42.3498 10.7622 42.9415 9.96118V8.48347C41.7499 9.55011 41 11.1001 41 12.8252V17.9689C41 19.694 41.7499 21.244 42.9415 22.3107V20.833Z" fill="black"/>
<line x1="42.9414" y1="7.48804" x2="47.7958" y2="7.48804" stroke="black"/>
<line x1="42.9414" y1="23.2941" x2="47.7958" y2="23.2941" stroke="black"/>
<line x1="27" x2="27" y2="16.7941" stroke="black" stroke-width="2"/>
<line x1="38.5923" y1="16.7941" x2="38.5923" y2="-1.90735e-06" stroke="black" stroke-width="2"/>
<path fill-rule="evenodd" clip-rule="evenodd" d="M26.9712 0L37.6497 16.7948L38.4849 16.2449L28.1561 0H26.9712Z" fill="black"/>
<path fill-rule="evenodd" clip-rule="evenodd" d="M78.3506 27.949L76.7587 27.1935C75.7833 26.7307 74.6279 27.1511 74.1782 28.1327C73.7284 29.1142 74.1546 30.2852 75.13 30.7481L76.7219 31.5035L76.3053 32.4126L74.7134 31.6572C73.239 30.9575 72.5949 29.1876 73.2747 27.7039C73.9546 26.2203 75.7009 25.5848 77.1753 26.2844L78.7671 27.0398L78.3506 27.949Z" fill="black"/>
<path fill-rule="evenodd" clip-rule="evenodd" d="M73.4165 35.3941L75.0084 36.1495C75.9838 36.6124 77.1392 36.1919 77.5889 35.2103C78.0387 34.2288 77.6125 33.0578 76.6371 32.5949L75.0452 31.8395L75.4618 30.9304L77.0537 31.6858C78.5281 32.3855 79.1722 34.1554 78.4924 35.6391C77.8125 37.1227 76.0662 37.7583 74.5918 37.0586L73 36.3032L73.4165 35.3941Z" fill="black"/>
<path fill-rule="evenodd" clip-rule="evenodd" d="M68.8543 27C66.7256 27 65 28.7257 65 30.8544V32.0124C65 34.1411 66.7256 35.8667 68.8543 35.8668V36.8668C66.1733 36.8667 64 34.6934 64 32.0124V30.8544C64 28.1734 66.1733 26 68.8543 26V27ZM73.7087 30.8262V32.0406C73.7087 32.0312 73.7087 32.0218 73.7087 32.0124V30.8544C73.7087 30.845 73.7087 30.8356 73.7087 30.8262Z" fill="black"/>
<line x1="68.8545" y1="26.4879" x2="70.7962" y2="26.4879" stroke="black"/>
<line x1="68.8545" y1="36.3668" x2="70.7962" y2="36.3668" stroke="black"/>
<line x1="33.8838" y1="36.3668" x2="35.8255" y2="36.3668" stroke="black"/>
<line x1="30.5" y1="26" x2="30.5" y2="36.8668" stroke="black"/>
<line x1="39.2383" y1="26" x2="39.2383" y2="36.8668" stroke="black"/>
<path fill-rule="evenodd" clip-rule="evenodd" d="M38.7397 26.0006L34.8535 36.8664L34.8547 36.8668H35.9153L39.6774 26.348L38.7397 26.0006Z" fill="black"/>
<path fill-rule="evenodd" clip-rule="evenodd" d="M30.9714 26L34.8581 36.8656L34.8549 36.8668H34.8545H33.8835H33.7965L30.0337 26.3473L30.9714 26Z" fill="black"/>
<line x1="42.5" y1="36.8668" x2="42.5" y2="26" stroke="black"/>
<line x1="43" y1="31.4274" x2="47.8544" y2="31.4274" stroke="black"/>
<line x1="43" y1="26.4879" x2="47.8544" y2="26.4879" stroke="black"/>
<line x1="43" y1="36.3668" x2="47.8544" y2="36.3668" stroke="black"/>
<line x1="50" y1="26.5" x2="58.7379" y2="26.5" stroke="black"/>
<line x1="54.3545" y1="36.8789" x2="54.3545" y2="27" stroke="black"/>
<line x1="61.5" y1="26" x2="61.5" y2="36.8668" stroke="black"/>
<rect x="10.5" y="26.5" width="8.70874" height="9.86679" rx="4.35437" stroke="black"/>
<path fill-rule="evenodd" clip-rule="evenodd" d="M5.85433 27C3.72564 27 2 28.7257 2 30.8544V32.0124C2 34.1411 3.72564 35.8668 5.85433 35.8668V36.8668C3.17335 36.8668 1 34.6934 1 32.0124V30.8544C1 28.1734 3.17335 26 5.85433 26V27ZM10.7087 30.8349V32.0319C10.7087 32.0254 10.7087 32.0189 10.7087 32.0124V30.8544C10.7087 30.8479 10.7087 30.8414 10.7087 30.8349Z" fill="black"/>
<line x1="5.85449" y1="26.4879" x2="7.79624" y2="26.4879" stroke="black"/>
<line x1="5.85449" y1="36.3668" x2="7.79624" y2="36.3668" stroke="black"/>
<path fill-rule="evenodd" clip-rule="evenodd" d="M27.3497 27.949L25.7577 27.1935C24.7823 26.7307 23.627 27.1511 23.1772 28.1327C22.7274 29.1142 23.1536 30.2852 24.129 30.7481L25.7209 31.5035L25.3044 32.4126L23.7124 31.6572C22.2381 30.9575 21.5939 29.1876 22.2738 27.7039C22.9536 26.2203 24.6999 25.5848 26.1743 26.2844L27.7662 27.0399L27.3497 27.949Z" fill="black"/>
<path fill-rule="evenodd" clip-rule="evenodd" d="M22.4166 35.3941L24.0084 36.1495C24.9838 36.6124 26.1392 36.1919 26.5889 35.2103C27.0387 34.2288 26.6125 33.0578 25.6371 32.5949L24.0453 31.8395L24.4619 30.9304L26.0537 31.6858C27.5281 32.3855 28.1722 34.1554 27.4924 35.6391C26.8125 37.1227 25.0662 37.7583 23.5918 37.0586L22 36.3032L22.4166 35.3941Z" fill="black"/>
</svg>
