<svg width="200" height="41" viewBox="0 0 200 41" fill="none" xmlns="http://www.w3.org/2000/svg">
<path fill-rule="evenodd" clip-rule="evenodd" d="M96.1162 1L102.912 17.7945L103.834 17.408L97.1949 1H96.1162Z" fill="black"/>
<path fill-rule="evenodd" clip-rule="evenodd" d="M89.3218 17.7941H90.4005L97.0392 1.38648L96.1169 1L89.3218 17.7941Z" fill="black"/>
<line x1="190.32" y1="1" x2="190.32" y2="17.7941" stroke="black" stroke-width="2"/>
<path fill-rule="evenodd" clip-rule="evenodd" d="M199 5.85437V6.02453C199 8.15316 197.274 9.87877 195.146 9.8789V10.8789C197.827 10.8788 200 8.70545 200 6.02453V5.85437C200 3.17346 197.827 1.00013 195.146 1V2C197.274 2.00013 199 3.72574 199 5.85437ZM191.262 2.94094C190.652 3.7524 190.291 4.76119 190.291 5.85437V6.02453C190.291 7.11771 190.652 8.1265 191.262 8.93795V2.94094Z" fill="black"/>
<path fill-rule="evenodd" clip-rule="evenodd" d="M198.029 5.85437V6.02453C198.029 8.15322 196.303 9.87886 194.175 9.8789V10.8789C196.856 10.8789 199.029 8.7055 199.029 6.02453V5.85437C199.029 3.1734 196.856 1.00004 194.175 1V2C196.303 2.00004 198.029 3.72569 198.029 5.85437ZM191.262 8.54915C190.675 7.87285 190.32 6.99016 190.32 6.02453V5.85437C190.32 4.88874 190.675 4.00605 191.262 3.32975V1.97046C190.083 2.85609 189.32 4.26616 189.32 5.85437V6.02453C189.32 7.61274 190.083 9.02281 191.262 9.90844V8.54915Z" fill="black"/>
<line x1="191.262" y1="1.48804" x2="195.146" y2="1.48804" stroke="black"/>
<line x1="191.262" y1="10.3789" x2="195.146" y2="10.3789" stroke="black"/>
<path fill-rule="evenodd" clip-rule="evenodd" d="M147.098 31.6059L145.506 30.8505C144.53 30.3876 143.375 30.8081 142.925 31.7897C142.475 32.7712 142.902 33.9422 143.877 34.4051L145.469 35.1605L145.052 36.0696L143.46 35.3142C141.986 34.6145 141.342 32.8446 142.022 31.3609C142.702 29.8773 144.448 29.2417 145.922 29.9414L147.514 30.6968L147.098 31.6059Z" fill="black"/>
<path fill-rule="evenodd" clip-rule="evenodd" d="M142.164 39.051L143.755 39.8065C144.731 40.2693 145.886 39.8489 146.336 38.8673C146.786 37.8858 146.36 36.7148 145.384 36.2519L143.792 35.4965L144.209 34.5874L145.801 35.3428C147.275 36.0425 147.919 37.8124 147.239 39.2961C146.56 40.7797 144.813 41.4152 143.339 40.7156L141.747 39.9602L142.164 39.051Z" fill="black"/>
<path fill-rule="evenodd" clip-rule="evenodd" d="M134.951 30.6488C132.823 30.6488 131.097 32.3745 131.097 34.5032V35.6612C131.097 37.7899 132.823 39.5156 134.951 39.5156V40.5156C132.27 40.5156 130.097 38.3422 130.097 35.6612V34.5032C130.097 31.8222 132.27 29.6488 134.951 29.6488V30.6488ZM139.806 34.475V35.6894C139.806 35.68 139.806 35.6706 139.806 35.6612V34.5032C139.806 34.4938 139.806 34.4844 139.806 34.475Z" fill="black"/>
<line x1="134.952" y1="30.1367" x2="136.893" y2="30.1367" stroke="black"/>
<line x1="134.952" y1="40.0156" x2="136.893" y2="40.0156" stroke="black"/>
<line x1="1" y1="1" x2="1" y2="17.7941" stroke="black" stroke-width="2"/>
<line x1="12.5923" y1="17.7941" x2="12.5923" y2="0.999998" stroke="black" stroke-width="2"/>
<path fill-rule="evenodd" clip-rule="evenodd" d="M54.3691 7.91481V10.0101C54.3691 13.7635 57.4119 16.8063 61.1653 16.8063C64.9186 16.8063 67.9614 13.7635 67.9614 10.0101V7.79613C67.9614 7.77397 67.9613 7.75184 67.9611 7.72974V7.91481H65.9614V10.0101C65.9614 12.659 63.8141 14.8063 61.1653 14.8063C58.5164 14.8063 56.3691 12.659 56.3691 10.0101V7.91481H54.3691Z" fill="black"/>
<line x1="55.3691" y1="1" x2="55.3691" y2="7.91621" stroke="black" stroke-width="2"/>
<line x1="66.9609" y1="7.9162" x2="66.9609" y2="0.999991" stroke="black" stroke-width="2"/>
<line x1="74.7866" y1="1" x2="74.7866" y2="17.7941" stroke="black" stroke-width="2"/>
<path fill-rule="evenodd" clip-rule="evenodd" d="M83.4661 5.85437V6.02453C83.4661 8.15324 81.7404 9.8789 79.6117 9.8789C79.6117 9.8789 79.6117 9.8789 79.6117 9.8789V10.8789C79.6117 10.8789 79.6117 10.8789 79.6117 10.8789C82.2927 10.8789 84.4661 8.70553 84.4661 6.02453V5.85437C84.4661 3.17338 82.2927 1 79.6117 1C79.6117 1 79.6117 1 79.6117 1V2C79.6117 2 79.6117 2 79.6117 2C81.7404 2 83.4661 3.72566 83.4661 5.85437ZM75.7282 2.94133V8.93757C75.1186 8.12618 74.7573 7.11754 74.7573 6.02453V5.85437C74.7573 4.76136 75.1186 3.75272 75.7282 2.94133Z" fill="black"/>
<path fill-rule="evenodd" clip-rule="evenodd" d="M82.4954 5.85437V6.02453C82.4954 8.15324 80.7697 9.8789 78.641 9.8789C78.6409 9.8789 78.6408 9.8789 78.6408 9.8789V10.8789C78.6408 10.8789 78.6409 10.8789 78.641 10.8789C81.322 10.8789 83.4954 8.70553 83.4954 6.02453V5.85437C83.4954 3.17338 81.322 1 78.641 1C78.6409 1 78.6408 1 78.6408 1V2C78.6408 2 78.6409 2 78.641 2C80.7697 2 82.4954 3.72566 82.4954 5.85437ZM75.7282 8.54882C75.1416 7.87256 74.7866 6.99 74.7866 6.02453V5.85437C74.7866 4.8889 75.1416 4.00634 75.7282 3.33008V1.97068C74.5492 2.85632 73.7866 4.26629 73.7866 5.85437V6.02453C73.7866 7.61261 74.5492 9.02258 75.7282 9.90822V8.54882Z" fill="black"/>
<line x1="75.728" y1="1.48804" x2="79.6115" y2="1.48804" stroke="black"/>
<line x1="75.728" y1="10.3789" x2="78.6406" y2="10.3789" stroke="black"/>
<line x1="109.738" y1="1" x2="109.738" y2="17.7941" stroke="black" stroke-width="2"/>
<line x1="119.417" y1="16.8183" x2="110.68" y2="16.8183" stroke="black" stroke-width="2"/>
<path fill-rule="evenodd" clip-rule="evenodd" d="M0.971191 1L11.6497 17.7948L12.4849 17.2449L2.15606 1H0.971191Z" fill="black"/>
<path fill-rule="evenodd" clip-rule="evenodd" d="M25.2427 1L32.038 17.7945L32.9603 17.408L26.3213 1H25.2427Z" fill="black"/>
<path fill-rule="evenodd" clip-rule="evenodd" d="M18.4473 17.7941H19.5259L26.1647 1.38648L25.2424 1L18.4473 17.7941Z" fill="black"/>
<line x1="21.3594" y1="10.8668" x2="30.0972" y2="10.8668" stroke="black" stroke-width="2"/>
<line x1="135.952" y1="1" x2="135.952" y2="17.7941" stroke="black" stroke-width="2"/>
<path fill-rule="evenodd" clip-rule="evenodd" d="M146.573 6.82524V11.9689C146.573 14.6338 144.413 16.7941 141.748 16.7941C141.748 16.7941 141.748 16.7941 141.748 16.7941V17.7941C141.748 17.7941 141.748 17.7941 141.748 17.7941C144.965 17.7941 147.573 15.1861 147.573 11.9689V6.82524C147.573 3.60805 144.965 1 141.748 1C141.748 1 141.748 1 141.748 1V2C141.748 2 141.748 2 141.748 2C144.413 2 146.573 4.16033 146.573 6.82524ZM136.893 3.60413V15.19C136.28 14.2674 135.922 13.1599 135.922 11.9689V6.82524C135.922 5.63426 136.28 4.52675 136.893 3.60413Z" fill="black"/>
<path fill-rule="evenodd" clip-rule="evenodd" d="M145.602 6.82524V11.9689C145.602 14.6338 143.442 16.7941 140.777 16.7941C140.777 16.7941 140.777 16.7941 140.777 16.7941V17.7941C140.777 17.7941 140.777 17.7941 140.777 17.7941C143.994 17.7941 146.602 15.1861 146.602 11.9689V6.82524C146.602 3.60805 143.994 1 140.777 1C140.777 1 140.777 1 140.777 1V2C140.777 2 140.777 2 140.777 2C143.442 2 145.602 4.16033 145.602 6.82524ZM136.893 14.833C136.301 14.0319 135.952 13.0412 135.952 11.9689V6.82524C135.952 5.75289 136.301 4.76224 136.893 3.96118V2.48347C135.702 3.55011 134.952 5.1001 134.952 6.82524V11.9689C134.952 13.694 135.702 15.244 136.893 16.3107V14.833Z" fill="black"/>
<line x1="136.893" y1="1.48804" x2="141.747" y2="1.48804" stroke="black"/>
<line x1="136.893" y1="17.2941" x2="141.747" y2="17.2941" stroke="black"/>
<rect x="170.903" y="2" width="11.5922" height="14.7941" rx="5.79612" stroke="black" stroke-width="2"/>
<line x1="94.1748" y1="40.0156" x2="96.1166" y2="40.0156" stroke="black"/>
<line x1="90.791" y1="29.6488" x2="90.791" y2="40.5156" stroke="black"/>
<line x1="99.5293" y1="29.6488" x2="99.5293" y2="40.5156" stroke="black"/>
<path fill-rule="evenodd" clip-rule="evenodd" d="M99.0307 29.6494L95.1445 40.5152L95.1457 40.5156H96.2063L99.9684 29.9967L99.0307 29.6494Z" fill="black"/>
<path fill-rule="evenodd" clip-rule="evenodd" d="M91.2625 29.6488L95.1491 40.5144L95.1459 40.5156H95.1455H94.1745H94.0875L90.3247 29.9961L91.2625 29.6488Z" fill="black"/>
<line x1="105.325" y1="40.5156" x2="105.325" y2="29.6488" stroke="black"/>
<line x1="105.825" y1="35.0761" x2="110.68" y2="35.0761" stroke="black"/>
<line x1="105.825" y1="30.1367" x2="110.68" y2="30.1367" stroke="black"/>
<line x1="105.825" y1="40.0156" x2="110.68" y2="40.0156" stroke="black"/>
<line x1="113.592" y1="30.1367" x2="122.33" y2="30.1367" stroke="black"/>
<line x1="117.947" y1="40.5156" x2="117.947" y2="30.6367" stroke="black"/>
<line x1="125.743" y1="29.6488" x2="125.743" y2="40.5156" stroke="black"/>
<rect x="66.5195" y="30.1488" width="8.70874" height="9.86679" rx="4.35437" stroke="black"/>
<path fill-rule="evenodd" clip-rule="evenodd" d="M60.1942 30.6488C58.0655 30.6488 56.3398 32.3745 56.3398 34.5032V35.6612C56.3398 37.7899 58.0655 39.5156 60.1942 39.5156V40.5156C57.5132 40.5156 55.3398 38.3422 55.3398 35.6612V34.5032C55.3398 31.8222 57.5132 29.6488 60.1942 29.6488V30.6488ZM65.0485 34.4837V35.6807C65.0486 35.6742 65.0486 35.6677 65.0486 35.6612V34.5032C65.0486 34.4967 65.0486 34.4902 65.0485 34.4837Z" fill="black"/>
<line x1="60.1943" y1="30.1367" x2="62.1361" y2="30.1367" stroke="black"/>
<line x1="60.1943" y1="40.0156" x2="62.1361" y2="40.0156" stroke="black"/>
<path fill-rule="evenodd" clip-rule="evenodd" d="M84.9615 31.606L83.3696 30.8505C82.3941 30.3876 81.2388 30.8081 80.789 31.7897C80.3392 32.7712 80.7654 33.9422 81.7408 34.4051L83.3328 35.1605L82.9162 36.0696L81.3243 35.3142C79.8499 34.6145 79.2058 32.8446 79.8856 31.3609C80.5654 29.8773 82.3117 29.2417 83.7861 29.9414L85.378 30.6969L84.9615 31.606Z" fill="black"/>
<path fill-rule="evenodd" clip-rule="evenodd" d="M80.0284 39.0511L81.6202 39.8065C82.5956 40.2693 83.751 39.8489 84.2007 38.8673C84.6505 37.8858 84.2244 36.7148 83.2489 36.2519L81.6571 35.4965L82.0737 34.5874L83.6655 35.3428C85.1399 36.0425 85.784 37.8124 85.1042 39.2961C84.4244 40.7797 82.678 41.4152 81.2036 40.7156L79.6118 39.9602L80.0284 39.0511Z" fill="black"/>
<path fill-rule="evenodd" clip-rule="evenodd" d="M24.2053 1L17.4102 17.7941H18.4888L25.2839 1H24.2053Z" fill="black"/>
<path fill-rule="evenodd" clip-rule="evenodd" d="M95.0788 1L88.2837 17.7941H89.3624L96.1575 1H95.0788Z" fill="black"/>
<line x1="35.9224" y1="1.97607" x2="49.5146" y2="1.97607" stroke="black" stroke-width="2"/>
<line x1="42.7476" y1="2.97607" x2="42.7476" y2="17.7944" stroke="black" stroke-width="2"/>
<line x1="92.2329" y1="10.8668" x2="100.971" y2="10.8668" stroke="black" stroke-width="2"/>
<path fill-rule="evenodd" clip-rule="evenodd" d="M82.524 17.7941H83.6707L79.5056 10.3763L78.6411 10.879L82.524 17.7941Z" fill="black"/>
<path fill-rule="evenodd" clip-rule="evenodd" d="M83.4942 17.7941H84.641L80.4758 10.3763L79.6113 10.879L83.4942 17.7941Z" fill="black"/>
<line x1="154.398" y1="1" x2="154.398" y2="17.7941" stroke="black" stroke-width="2"/>
<path fill-rule="evenodd" clip-rule="evenodd" d="M163.078 5.85437V6.02453C163.078 8.15324 161.352 9.8789 159.224 9.8789C159.223 9.8789 159.223 9.8789 159.223 9.8789V10.8789C159.223 10.8789 159.223 10.8789 159.224 10.8789C161.905 10.8789 164.078 8.70553 164.078 6.02453V5.85437C164.078 3.17338 161.905 1 159.224 1C159.223 1 159.223 1 159.223 1V2C159.223 2 159.223 2 159.224 2C161.352 2 163.078 3.72566 163.078 5.85437ZM155.34 2.94155V8.93735C154.73 8.12599 154.369 7.11744 154.369 6.02453V5.85437C154.369 4.76146 154.73 3.7529 155.34 2.94155Z" fill="black"/>
<path fill-rule="evenodd" clip-rule="evenodd" d="M162.107 5.85437V6.02453C162.107 8.15321 160.381 9.87884 158.252 9.8789V10.8789C160.933 10.8788 163.107 8.70549 163.107 6.02453V5.85437C163.107 3.17341 160.933 1.00006 158.252 1V2C160.381 2.00006 162.107 3.7257 162.107 5.85437ZM155.34 8.54919C154.753 7.87288 154.398 6.99018 154.398 6.02453V5.85437C154.398 4.88872 154.753 4.00601 155.34 3.32971V1.97044C154.161 2.85607 153.398 4.26614 153.398 5.85437V6.02453C153.398 7.61275 154.161 9.02283 155.34 9.90846V8.54919Z" fill="black"/>
<line x1="155.34" y1="1.48804" x2="159.223" y2="1.48804" stroke="black"/>
<line x1="155.34" y1="10.3789" x2="158.252" y2="10.3789" stroke="black"/>
<path fill-rule="evenodd" clip-rule="evenodd" d="M162.135 17.7941H163.282L159.117 10.3763L158.252 10.879L162.135 17.7941Z" fill="black"/>
<path fill-rule="evenodd" clip-rule="evenodd" d="M163.107 17.7941H164.253L160.088 10.3763L159.224 10.879L163.107 17.7941Z" fill="black"/>
</svg>
