<?xml version="1.0" encoding="UTF-8"?>
<svg xmlns="http://www.w3.org/2000/svg" xmlns:xlink="http://www.w3.org/1999/xlink" width="180px" height="37px" viewBox="0 0 180 37" version="1.1">
<g id="surface1">
<path style=" stroke:none;fill-rule:evenodd;fill:rgb(0%,0%,0%);fill-opacity:1;" d="M 86.503906 0.902344 L 92.621094 16.058594 L 93.449219 15.710938 L 87.476562 0.902344 Z M 86.503906 0.902344 "/>
<path style=" stroke:none;fill-rule:evenodd;fill:rgb(0%,0%,0%);fill-opacity:1;" d="M 80.390625 16.058594 L 81.359375 16.058594 L 87.335938 1.25 L 86.503906 0.902344 Z M 80.390625 16.058594 "/>
<path style="fill:none;stroke-width:2;stroke-linecap:butt;stroke-linejoin:miter;stroke:rgb(0%,0%,0%);stroke-opacity:1;stroke-miterlimit:4;" d="M 190.321181 0.999894 L 190.321181 17.794658 " transform="matrix(0.9,0,0,0.902439,0,0)"/>
<path style=" stroke:none;fill-rule:evenodd;fill:rgb(0%,0%,0%);fill-opacity:1;" d="M 179.101562 5.285156 L 179.101562 5.4375 C 179.101562 7.359375 177.546875 8.914062 175.632812 8.914062 L 175.632812 9.816406 C 178.042969 9.816406 180 7.855469 180 5.4375 L 180 5.285156 C 180 2.863281 178.042969 0.902344 175.632812 0.902344 L 175.632812 1.804688 C 177.546875 1.804688 179.101562 3.363281 179.101562 5.285156 Z M 172.136719 2.652344 C 171.585938 3.386719 171.261719 4.296875 171.261719 5.285156 L 171.261719 5.4375 C 171.261719 6.421875 171.585938 7.332031 172.136719 8.066406 Z M 172.136719 2.652344 "/>
<path style=" stroke:none;fill-rule:evenodd;fill:rgb(0%,0%,0%);fill-opacity:1;" d="M 178.226562 5.285156 L 178.226562 5.4375 C 178.226562 7.359375 176.671875 8.914062 174.757812 8.914062 L 174.757812 9.816406 C 177.171875 9.816406 179.125 7.855469 179.125 5.4375 L 179.125 5.285156 C 179.125 2.863281 177.171875 0.902344 174.757812 0.902344 L 174.757812 1.804688 C 176.671875 1.804688 178.226562 3.363281 178.226562 5.285156 Z M 172.136719 7.714844 C 171.609375 7.105469 171.289062 6.308594 171.289062 5.4375 L 171.289062 5.285156 C 171.289062 4.410156 171.609375 3.613281 172.136719 3.003906 L 172.136719 1.777344 C 171.074219 2.578125 170.386719 3.851562 170.386719 5.285156 L 170.386719 5.4375 C 170.386719 6.871094 171.074219 8.140625 172.136719 8.941406 Z M 172.136719 7.714844 "/>
<path style="fill:none;stroke-width:1;stroke-linecap:butt;stroke-linejoin:miter;stroke:rgb(0%,0%,0%);stroke-opacity:1;stroke-miterlimit:4;" d="M 191.263021 1.48902 L 195.147569 1.48902 " transform="matrix(0.9,0,0,0.902439,0,0)"/>
<path style="fill:none;stroke-width:1;stroke-linecap:butt;stroke-linejoin:miter;stroke:rgb(0%,0%,0%);stroke-opacity:1;stroke-miterlimit:4;" d="M 191.263021 10.379856 L 195.147569 10.379856 " transform="matrix(0.9,0,0,0.902439,0,0)"/>
<path style=" stroke:none;fill-rule:evenodd;fill:rgb(0%,0%,0%);fill-opacity:1;" d="M 132.386719 28.523438 L 130.957031 27.839844 C 130.078125 27.421875 129.039062 27.800781 128.632812 28.6875 C 128.226562 29.574219 128.613281 30.628906 129.488281 31.046875 L 130.921875 31.730469 L 130.546875 32.550781 L 129.113281 31.867188 C 127.789062 31.238281 127.207031 29.640625 127.820312 28.300781 C 128.433594 26.960938 130.003906 26.390625 131.328125 27.019531 L 132.761719 27.703125 Z M 132.386719 28.523438 "/>
<path style=" stroke:none;fill-rule:evenodd;fill:rgb(0%,0%,0%);fill-opacity:1;" d="M 127.949219 35.242188 L 129.378906 35.921875 C 130.257812 36.339844 131.296875 35.960938 131.703125 35.074219 C 132.105469 34.191406 131.722656 33.132812 130.84375 32.714844 L 129.414062 32.035156 L 129.789062 31.214844 L 131.222656 31.894531 C 132.546875 32.527344 133.128906 34.125 132.515625 35.460938 C 131.902344 36.800781 130.332031 37.375 129.003906 36.742188 L 127.574219 36.0625 Z M 127.949219 35.242188 "/>
<path style=" stroke:none;fill-rule:evenodd;fill:rgb(0%,0%,0%);fill-opacity:1;" d="M 121.457031 27.660156 C 119.539062 27.660156 117.988281 29.214844 117.988281 31.136719 L 117.988281 32.183594 C 117.988281 34.101562 119.539062 35.660156 121.457031 35.660156 L 121.457031 36.5625 C 119.042969 36.5625 117.085938 34.601562 117.085938 32.183594 L 117.085938 31.136719 C 117.085938 28.71875 119.042969 26.757812 121.457031 26.757812 Z M 125.824219 31.113281 L 125.824219 32.207031 C 125.824219 32.199219 125.824219 32.191406 125.824219 32.183594 L 125.824219 31.136719 C 125.824219 31.128906 125.824219 31.121094 125.824219 31.113281 Z M 125.824219 31.113281 "/>
<path style="fill:none;stroke-width:1;stroke-linecap:butt;stroke-linejoin:miter;stroke:rgb(0%,0%,0%);stroke-opacity:1;stroke-miterlimit:4;" d="M 134.952257 30.135346 L 136.892361 30.135346 " transform="matrix(0.9,0,0,0.902439,0,0)"/>
<path style="fill:none;stroke-width:1;stroke-linecap:butt;stroke-linejoin:miter;stroke:rgb(0%,0%,0%);stroke-opacity:1;stroke-miterlimit:4;" d="M 134.952257 40.01742 L 136.892361 40.01742 " transform="matrix(0.9,0,0,0.902439,0,0)"/>
<path style="fill:none;stroke-width:2;stroke-linecap:butt;stroke-linejoin:miter;stroke:rgb(0%,0%,0%);stroke-opacity:1;stroke-miterlimit:4;" d="M 0.998264 0.999894 L 0.998264 17.794658 " transform="matrix(0.9,0,0,0.902439,0,0)"/>
<path style="fill:none;stroke-width:2;stroke-linecap:butt;stroke-linejoin:miter;stroke:rgb(0%,0%,0%);stroke-opacity:1;stroke-miterlimit:4;" d="M 12.591146 17.794658 L 12.591146 0.999894 " transform="matrix(0.9,0,0,0.902439,0,0)"/>
<path style=" stroke:none;fill-rule:evenodd;fill:rgb(0%,0%,0%);fill-opacity:1;" d="M 48.933594 7.144531 L 48.933594 9.035156 C 48.933594 12.421875 51.671875 15.167969 55.046875 15.167969 C 58.425781 15.167969 61.164062 12.421875 61.164062 9.035156 L 61.164062 7.035156 C 61.164062 7.015625 61.164062 6.996094 61.164062 6.976562 L 61.164062 7.144531 L 59.367188 7.144531 L 59.367188 9.035156 C 59.367188 11.425781 57.433594 13.363281 55.046875 13.363281 C 52.664062 13.363281 50.730469 11.425781 50.730469 9.035156 L 50.730469 7.144531 Z M 48.933594 7.144531 "/>
<path style="fill:none;stroke-width:2;stroke-linecap:butt;stroke-linejoin:miter;stroke:rgb(0%,0%,0%);stroke-opacity:1;stroke-miterlimit:4;" d="M 55.368924 0.999894 L 55.368924 7.916913 " transform="matrix(0.9,0,0,0.902439,0,0)"/>
<path style="fill:none;stroke-width:2;stroke-linecap:butt;stroke-linejoin:miter;stroke:rgb(0%,0%,0%);stroke-opacity:1;stroke-miterlimit:4;" d="M 66.961806 7.916913 L 66.961806 0.999894 " transform="matrix(0.9,0,0,0.902439,0,0)"/>
<path style="fill:none;stroke-width:2;stroke-linecap:butt;stroke-linejoin:miter;stroke:rgb(0%,0%,0%);stroke-opacity:1;stroke-miterlimit:4;" d="M 74.787326 0.999894 L 74.787326 17.794658 " transform="matrix(0.9,0,0,0.902439,0,0)"/>
<path style=" stroke:none;fill-rule:evenodd;fill:rgb(0%,0%,0%);fill-opacity:1;" d="M 75.121094 5.285156 L 75.121094 5.4375 C 75.121094 7.359375 73.566406 8.914062 71.652344 8.914062 L 71.652344 9.816406 C 74.0625 9.816406 76.019531 7.855469 76.019531 5.4375 L 76.019531 5.285156 C 76.019531 2.863281 74.0625 0.902344 71.652344 0.902344 L 71.652344 1.804688 C 73.566406 1.804688 75.121094 3.363281 75.121094 5.285156 Z M 68.15625 2.65625 L 68.15625 8.066406 C 67.605469 7.332031 67.28125 6.421875 67.28125 5.4375 L 67.28125 5.285156 C 67.28125 4.296875 67.605469 3.386719 68.15625 2.65625 Z M 68.15625 2.65625 "/>
<path style=" stroke:none;fill-rule:evenodd;fill:rgb(0%,0%,0%);fill-opacity:1;" d="M 74.246094 5.285156 L 74.246094 5.4375 C 74.246094 7.359375 72.691406 8.914062 70.777344 8.914062 L 70.777344 9.816406 C 73.191406 9.816406 75.144531 7.855469 75.144531 5.4375 L 75.144531 5.285156 C 75.144531 2.863281 73.191406 0.902344 70.777344 0.902344 L 70.777344 1.804688 C 72.691406 1.804688 74.246094 3.363281 74.246094 5.285156 Z M 68.15625 7.714844 C 67.628906 7.105469 67.308594 6.308594 67.308594 5.4375 L 67.308594 5.285156 C 67.308594 4.410156 67.628906 3.617188 68.15625 3.003906 L 68.15625 1.777344 C 67.09375 2.578125 66.40625 3.851562 66.40625 5.285156 L 66.40625 5.4375 C 66.40625 6.871094 67.09375 8.140625 68.15625 8.941406 Z M 68.15625 7.714844 "/>
<path style="fill:none;stroke-width:1;stroke-linecap:butt;stroke-linejoin:miter;stroke:rgb(0%,0%,0%);stroke-opacity:1;stroke-miterlimit:4;" d="M 75.729167 1.48902 L 79.609375 1.48902 " transform="matrix(0.9,0,0,0.902439,0,0)"/>
<path style="fill:none;stroke-width:1;stroke-linecap:butt;stroke-linejoin:miter;stroke:rgb(0%,0%,0%);stroke-opacity:1;stroke-miterlimit:4;" d="M 75.729167 10.379856 L 78.641493 10.379856 " transform="matrix(0.9,0,0,0.902439,0,0)"/>
<path style="fill:none;stroke-width:2;stroke-linecap:butt;stroke-linejoin:miter;stroke:rgb(0%,0%,0%);stroke-opacity:1;stroke-miterlimit:4;" d="M 109.739583 0.999894 L 109.739583 17.794658 " transform="matrix(0.9,0,0,0.902439,0,0)"/>
<path style="fill:none;stroke-width:2;stroke-linecap:butt;stroke-linejoin:miter;stroke:rgb(0%,0%,0%);stroke-opacity:1;stroke-miterlimit:4;" d="M 119.418403 16.816406 L 110.681424 16.816406 " transform="matrix(0.9,0,0,0.902439,0,0)"/>
<path style=" stroke:none;fill-rule:evenodd;fill:rgb(0%,0%,0%);fill-opacity:1;" d="M 0.875 0.902344 L 10.484375 16.058594 L 11.238281 15.5625 L 1.941406 0.902344 Z M 0.875 0.902344 "/>
<path style=" stroke:none;fill-rule:evenodd;fill:rgb(0%,0%,0%);fill-opacity:1;" d="M 22.71875 0.902344 L 28.835938 16.058594 L 29.664062 15.710938 L 23.6875 0.902344 Z M 22.71875 0.902344 "/>
<path style=" stroke:none;fill-rule:evenodd;fill:rgb(0%,0%,0%);fill-opacity:1;" d="M 16.601562 16.058594 L 17.574219 16.058594 L 23.546875 1.25 L 22.71875 0.902344 Z M 16.601562 16.058594 "/>
<path style="fill:none;stroke-width:2;stroke-linecap:butt;stroke-linejoin:miter;stroke:rgb(0%,0%,0%);stroke-opacity:1;stroke-miterlimit:4;" d="M 21.358507 10.864654 L 30.095486 10.864654 " transform="matrix(0.9,0,0,0.902439,0,0)"/>
<path style="fill:none;stroke-width:2;stroke-linecap:butt;stroke-linejoin:miter;stroke:rgb(0%,0%,0%);stroke-opacity:1;stroke-miterlimit:4;" d="M 135.950521 0.999894 L 135.950521 17.794658 " transform="matrix(0.9,0,0,0.902439,0,0)"/>
<path style=" stroke:none;fill-rule:evenodd;fill:rgb(0%,0%,0%);fill-opacity:1;" d="M 131.914062 6.160156 L 131.914062 10.800781 C 131.914062 13.207031 129.972656 15.15625 127.574219 15.15625 L 127.574219 16.058594 C 130.46875 16.058594 132.816406 13.703125 132.816406 10.800781 L 132.816406 6.160156 C 132.816406 3.257812 130.46875 0.902344 127.574219 0.902344 L 127.574219 1.804688 C 129.972656 1.804688 131.914062 3.753906 131.914062 6.160156 Z M 123.203125 3.253906 L 123.203125 13.707031 C 122.652344 12.875 122.328125 11.875 122.328125 10.800781 L 122.328125 6.160156 C 122.328125 5.085938 122.652344 4.085938 123.203125 3.253906 Z M 123.203125 3.253906 "/>
<path style=" stroke:none;fill-rule:evenodd;fill:rgb(0%,0%,0%);fill-opacity:1;" d="M 131.042969 6.160156 L 131.042969 10.800781 C 131.042969 13.207031 129.097656 15.15625 126.699219 15.15625 L 126.699219 16.058594 C 129.59375 16.058594 131.941406 13.703125 131.941406 10.800781 L 131.941406 6.160156 C 131.941406 3.257812 129.59375 0.902344 126.699219 0.902344 L 126.699219 1.804688 C 129.097656 1.804688 131.042969 3.753906 131.042969 6.160156 Z M 123.203125 13.386719 C 122.671875 12.664062 122.355469 11.769531 122.355469 10.800781 L 122.355469 6.160156 C 122.355469 5.191406 122.671875 4.296875 123.203125 3.574219 L 123.203125 2.242188 C 122.132812 3.203125 121.457031 4.601562 121.457031 6.160156 L 121.457031 10.800781 C 121.457031 12.359375 122.132812 13.757812 123.203125 14.71875 Z M 123.203125 13.386719 "/>
<path style="fill:none;stroke-width:1;stroke-linecap:butt;stroke-linejoin:miter;stroke:rgb(0%,0%,0%);stroke-opacity:1;stroke-miterlimit:4;" d="M 136.892361 1.48902 L 141.749132 1.48902 " transform="matrix(0.9,0,0,0.902439,0,0)"/>
<path style="fill:none;stroke-width:1;stroke-linecap:butt;stroke-linejoin:miter;stroke:rgb(0%,0%,0%);stroke-opacity:1;stroke-miterlimit:4;" d="M 136.892361 17.292546 L 141.749132 17.292546 " transform="matrix(0.9,0,0,0.902439,0,0)"/>
<path style="fill:none;stroke-width:2;stroke-linecap:butt;stroke-linejoin:miter;stroke:rgb(0%,0%,0%);stroke-opacity:1;stroke-miterlimit:4;" d="M 176.697049 1.999789 C 179.900174 1.999789 182.49566 4.596917 182.49566 7.795714 L 182.49566 10.998839 C 182.49566 14.197635 179.900174 16.794764 176.697049 16.794764 C 173.498264 16.794764 170.902778 14.197635 170.902778 10.998839 L 170.902778 7.795714 C 170.902778 4.596917 173.498264 1.999789 176.697049 1.999789 Z M 176.697049 1.999789 " transform="matrix(0.9,0,0,0.902439,0,0)"/>
<path style="fill:none;stroke-width:1;stroke-linecap:butt;stroke-linejoin:miter;stroke:rgb(0%,0%,0%);stroke-opacity:1;stroke-miterlimit:4;" d="M 94.175347 40.01742 L 96.115451 40.01742 " transform="matrix(0.9,0,0,0.902439,0,0)"/>
<path style="fill:none;stroke-width:1;stroke-linecap:butt;stroke-linejoin:miter;stroke:rgb(0%,0%,0%);stroke-opacity:1;stroke-miterlimit:4;" d="M 90.789931 29.650549 L 90.789931 40.515203 " transform="matrix(0.9,0,0,0.902439,0,0)"/>
<path style="fill:none;stroke-width:1;stroke-linecap:butt;stroke-linejoin:miter;stroke:rgb(0%,0%,0%);stroke-opacity:1;stroke-miterlimit:4;" d="M 99.53125 29.650549 L 99.53125 40.515203 " transform="matrix(0.9,0,0,0.902439,0,0)"/>
<path style=" stroke:none;fill-rule:evenodd;fill:rgb(0%,0%,0%);fill-opacity:1;" d="M 89.128906 26.757812 L 85.628906 36.5625 L 86.585938 36.5625 L 89.972656 27.070312 Z M 89.128906 26.757812 "/>
<path style=" stroke:none;fill-rule:evenodd;fill:rgb(0%,0%,0%);fill-opacity:1;" d="M 82.136719 26.757812 L 85.632812 36.5625 L 84.679688 36.5625 L 81.292969 27.070312 Z M 82.136719 26.757812 "/>
<path style="fill:none;stroke-width:1;stroke-linecap:butt;stroke-linejoin:miter;stroke:rgb(0%,0%,0%);stroke-opacity:1;stroke-miterlimit:4;" d="M 105.325521 40.515203 L 105.325521 29.650549 " transform="matrix(0.9,0,0,0.902439,0,0)"/>
<path style="fill:none;stroke-width:1;stroke-linecap:butt;stroke-linejoin:miter;stroke:rgb(0%,0%,0%);stroke-opacity:1;stroke-miterlimit:4;" d="M 105.824653 35.074219 L 110.681424 35.074219 " transform="matrix(0.9,0,0,0.902439,0,0)"/>
<path style="fill:none;stroke-width:1;stroke-linecap:butt;stroke-linejoin:miter;stroke:rgb(0%,0%,0%);stroke-opacity:1;stroke-miterlimit:4;" d="M 105.824653 30.135346 L 110.681424 30.135346 " transform="matrix(0.9,0,0,0.902439,0,0)"/>
<path style="fill:none;stroke-width:1;stroke-linecap:butt;stroke-linejoin:miter;stroke:rgb(0%,0%,0%);stroke-opacity:1;stroke-miterlimit:4;" d="M 105.824653 40.01742 L 110.681424 40.01742 " transform="matrix(0.9,0,0,0.902439,0,0)"/>
<path style="fill:none;stroke-width:1;stroke-linecap:butt;stroke-linejoin:miter;stroke:rgb(0%,0%,0%);stroke-opacity:1;stroke-miterlimit:4;" d="M 113.59375 30.135346 L 122.330729 30.135346 " transform="matrix(0.9,0,0,0.902439,0,0)"/>
<path style="fill:none;stroke-width:1;stroke-linecap:butt;stroke-linejoin:miter;stroke:rgb(0%,0%,0%);stroke-opacity:1;stroke-miterlimit:4;" d="M 117.947049 40.515203 L 117.947049 30.637458 " transform="matrix(0.9,0,0,0.902439,0,0)"/>
<path style="fill:none;stroke-width:1;stroke-linecap:butt;stroke-linejoin:miter;stroke:rgb(0%,0%,0%);stroke-opacity:1;stroke-miterlimit:4;" d="M 125.742188 29.650549 L 125.742188 40.515203 " transform="matrix(0.9,0,0,0.902439,0,0)"/>
<path style="fill:none;stroke-width:1;stroke-linecap:butt;stroke-linejoin:miter;stroke:rgb(0%,0%,0%);stroke-opacity:1;stroke-miterlimit:4;" d="M 70.872396 30.148332 C 73.27691 30.148332 75.230035 32.096178 75.230035 34.502851 L 75.230035 35.662901 C 75.230035 38.065245 73.27691 40.01742 70.872396 40.01742 C 68.467882 40.01742 66.519097 38.065245 66.519097 35.662901 L 66.519097 34.502851 C 66.519097 32.096178 68.467882 30.148332 70.872396 30.148332 Z M 70.872396 30.148332 " transform="matrix(0.9,0,0,0.902439,0,0)"/>
<path style=" stroke:none;fill-rule:evenodd;fill:rgb(0%,0%,0%);fill-opacity:1;" d="M 54.175781 27.660156 C 52.257812 27.660156 50.707031 29.214844 50.707031 31.136719 L 50.707031 32.183594 C 50.707031 34.101562 52.257812 35.660156 54.175781 35.660156 L 54.175781 36.5625 C 51.761719 36.5625 49.804688 34.601562 49.804688 32.183594 L 49.804688 31.136719 C 49.804688 28.71875 51.761719 26.757812 54.175781 26.757812 Z M 58.542969 31.121094 L 58.542969 32.199219 C 58.542969 32.195312 58.542969 32.1875 58.542969 32.183594 L 58.542969 31.136719 C 58.542969 31.132812 58.542969 31.125 58.542969 31.121094 Z M 58.542969 31.121094 "/>
<path style="fill:none;stroke-width:1;stroke-linecap:butt;stroke-linejoin:miter;stroke:rgb(0%,0%,0%);stroke-opacity:1;stroke-miterlimit:4;" d="M 60.195312 30.135346 L 62.135417 30.135346 " transform="matrix(0.9,0,0,0.902439,0,0)"/>
<path style="fill:none;stroke-width:1;stroke-linecap:butt;stroke-linejoin:miter;stroke:rgb(0%,0%,0%);stroke-opacity:1;stroke-miterlimit:4;" d="M 60.195312 40.01742 L 62.135417 40.01742 " transform="matrix(0.9,0,0,0.902439,0,0)"/>
<path style=" stroke:none;fill-rule:evenodd;fill:rgb(0%,0%,0%);fill-opacity:1;" d="M 76.464844 28.523438 L 75.03125 27.839844 C 74.15625 27.421875 73.113281 27.800781 72.710938 28.6875 C 72.304688 29.574219 72.6875 30.628906 73.566406 31.046875 L 75 31.730469 L 74.625 32.550781 L 73.191406 31.867188 C 71.863281 31.238281 71.285156 29.640625 71.898438 28.300781 C 72.507812 26.960938 74.082031 26.390625 75.40625 27.019531 L 76.839844 27.703125 Z M 76.464844 28.523438 "/>
<path style=" stroke:none;fill-rule:evenodd;fill:rgb(0%,0%,0%);fill-opacity:1;" d="M 72.027344 35.242188 L 73.457031 35.921875 C 74.335938 36.339844 75.375 35.960938 75.78125 35.074219 C 76.183594 34.191406 75.800781 33.132812 74.925781 32.714844 L 73.492188 32.035156 L 73.867188 31.214844 L 75.300781 31.894531 C 76.625 32.527344 77.207031 34.125 76.59375 35.460938 C 75.980469 36.800781 74.410156 37.375 73.082031 36.742188 L 71.652344 36.0625 Z M 72.027344 35.242188 "/>
<path style=" stroke:none;fill-rule:evenodd;fill:rgb(0%,0%,0%);fill-opacity:1;" d="M 21.785156 0.902344 L 15.667969 16.058594 L 16.640625 16.058594 L 22.753906 0.902344 Z M 21.785156 0.902344 "/>
<path style=" stroke:none;fill-rule:evenodd;fill:rgb(0%,0%,0%);fill-opacity:1;" d="M 85.570312 0.902344 L 79.457031 16.058594 L 80.425781 16.058594 L 86.542969 0.902344 Z M 85.570312 0.902344 "/>
<path style="fill:none;stroke-width:2;stroke-linecap:butt;stroke-linejoin:miter;stroke:rgb(0%,0%,0%);stroke-opacity:1;stroke-miterlimit:4;" d="M 35.924479 1.978146 L 49.513889 1.978146 " transform="matrix(0.9,0,0,0.902439,0,0)"/>
<path style="fill:none;stroke-width:2;stroke-linecap:butt;stroke-linejoin:miter;stroke:rgb(0%,0%,0%);stroke-opacity:1;stroke-miterlimit:4;" d="M 42.747396 2.978041 L 42.747396 17.794658 " transform="matrix(0.9,0,0,0.902439,0,0)"/>
<path style="fill:none;stroke-width:2;stroke-linecap:butt;stroke-linejoin:miter;stroke:rgb(0%,0%,0%);stroke-opacity:1;stroke-miterlimit:4;" d="M 92.230903 10.864654 L 100.972222 10.864654 " transform="matrix(0.9,0,0,0.902439,0,0)"/>
<path style=" stroke:none;fill-rule:evenodd;fill:rgb(0%,0%,0%);fill-opacity:1;" d="M 74.273438 16.058594 L 75.304688 16.058594 L 71.554688 9.363281 L 70.777344 9.816406 Z M 74.273438 16.058594 "/>
<path style=" stroke:none;fill-rule:evenodd;fill:rgb(0%,0%,0%);fill-opacity:1;" d="M 75.144531 16.058594 L 76.175781 16.058594 L 72.429688 9.363281 L 71.648438 9.816406 Z M 75.144531 16.058594 "/>
<path style="fill:none;stroke-width:2;stroke-linecap:butt;stroke-linejoin:miter;stroke:rgb(0%,0%,0%);stroke-opacity:1;stroke-miterlimit:4;" d="M 154.396701 0.999894 L 154.396701 17.794658 " transform="matrix(0.9,0,0,0.902439,0,0)"/>
<path style=" stroke:none;fill-rule:evenodd;fill:rgb(0%,0%,0%);fill-opacity:1;" d="M 146.769531 5.285156 L 146.769531 5.4375 C 146.769531 7.359375 145.21875 8.914062 143.300781 8.914062 L 143.300781 9.816406 C 145.714844 9.816406 147.671875 7.855469 147.671875 5.4375 L 147.671875 5.285156 C 147.671875 2.863281 145.714844 0.902344 143.300781 0.902344 L 143.300781 1.804688 C 145.21875 1.804688 146.769531 3.363281 146.769531 5.285156 Z M 139.804688 2.65625 L 139.804688 8.066406 C 139.257812 7.332031 138.933594 6.421875 138.933594 5.4375 L 138.933594 5.285156 C 138.933594 4.296875 139.257812 3.386719 139.804688 2.65625 Z M 139.804688 2.65625 "/>
<path style=" stroke:none;fill-rule:evenodd;fill:rgb(0%,0%,0%);fill-opacity:1;" d="M 145.894531 5.285156 L 145.894531 5.4375 C 145.894531 7.359375 144.34375 8.914062 142.425781 8.914062 L 142.425781 9.816406 C 144.839844 9.816406 146.796875 7.855469 146.796875 5.4375 L 146.796875 5.285156 C 146.796875 2.863281 144.839844 0.902344 142.425781 0.902344 L 142.425781 1.804688 C 144.34375 1.804688 145.894531 3.363281 145.894531 5.285156 Z M 139.804688 7.714844 C 139.277344 7.105469 138.957031 6.308594 138.957031 5.4375 L 138.957031 5.285156 C 138.957031 4.410156 139.277344 3.613281 139.804688 3.003906 L 139.804688 1.777344 C 138.746094 2.578125 138.058594 3.851562 138.058594 5.285156 L 138.058594 5.4375 C 138.058594 6.871094 138.746094 8.140625 139.804688 8.941406 Z M 139.804688 7.714844 "/>
<path style="fill:none;stroke-width:1;stroke-linecap:butt;stroke-linejoin:miter;stroke:rgb(0%,0%,0%);stroke-opacity:1;stroke-miterlimit:4;" d="M 155.338542 1.48902 L 159.22309 1.48902 " transform="matrix(0.9,0,0,0.902439,0,0)"/>
<path style="fill:none;stroke-width:1;stroke-linecap:butt;stroke-linejoin:miter;stroke:rgb(0%,0%,0%);stroke-opacity:1;stroke-miterlimit:4;" d="M 155.338542 10.379856 L 158.250868 10.379856 " transform="matrix(0.9,0,0,0.902439,0,0)"/>
<path style=" stroke:none;fill-rule:evenodd;fill:rgb(0%,0%,0%);fill-opacity:1;" d="M 145.921875 16.058594 L 146.953125 16.058594 L 143.207031 9.363281 L 142.425781 9.816406 Z M 145.921875 16.058594 "/>
<path style=" stroke:none;fill-rule:evenodd;fill:rgb(0%,0%,0%);fill-opacity:1;" d="M 146.796875 16.058594 L 147.828125 16.058594 L 144.078125 9.363281 L 143.300781 9.816406 Z M 146.796875 16.058594 "/>
</g>
</svg>
